<svg xmlns="http://www.w3.org/2000/svg" xmlns:xlink="http://www.w3.org/1999/xlink" width="512" zoomAndPan="magnify" viewBox="0 0 384 383.999986" height="512" preserveAspectRatio="xMidYMid meet" version="1.0"><defs><g/><clipPath id="56d891f443"><rect x="0" width="283" y="0" height="376"/></clipPath></defs><rect x="-38.4" width="460.8" fill="#ffffff" y="-38.399999" height="460.799983" fill-opacity="1"/><rect x="-38.4" width="460.8" fill="#f2efe7" y="-38.399999" height="460.799983" fill-opacity="1"/><g transform="matrix(1, 0, 0, 1, 49, 0)"><g clip-path="url(#56d891f443)"><g fill="#1e293b" fill-opacity="1"><g transform="translate(1.276451, 307.09785)"><g><path d="M 136.34375 -207.578125 C 136.34375 -206.441406 135.945312 -205.476562 135.15625 -204.6875 C 134.363281 -203.894531 133.40625 -203.5 132.28125 -203.5 L 59.359375 -203.5 C 58.222656 -203.5 57.65625 -202.9375 57.65625 -201.8125 L 57.65625 -137.703125 C 57.65625 -136.578125 58.222656 -136.015625 59.359375 -136.015625 L 102.4375 -136.015625 C 103.5625 -136.015625 104.519531 -135.617188 105.3125 -134.828125 C 106.101562 -134.035156 106.5 -133.070312 106.5 -131.9375 L 106.5 -105.828125 C 106.5 -104.691406 106.101562 -103.726562 105.3125 -102.9375 C 104.519531 -102.144531 103.5625 -101.75 102.4375 -101.75 L 59.359375 -101.75 C 58.222656 -101.75 57.65625 -101.1875 57.65625 -100.0625 L 57.65625 -4.0625 C 57.65625 -2.9375 57.257812 -1.976562 56.46875 -1.1875 C 55.675781 -0.394531 54.71875 0 53.59375 0 L 22.390625 0 C 21.253906 0 20.289062 -0.394531 19.5 -1.1875 C 18.707031 -1.976562 18.3125 -2.9375 18.3125 -4.0625 L 18.3125 -233.34375 C 18.3125 -234.476562 18.707031 -235.441406 19.5 -236.234375 C 20.289062 -237.023438 21.253906 -237.421875 22.390625 -237.421875 L 132.28125 -237.421875 C 133.40625 -237.421875 134.363281 -237.023438 135.15625 -236.234375 C 135.945312 -235.441406 136.34375 -234.476562 136.34375 -233.34375 Z M 136.34375 -207.578125 "/></g></g></g><g fill="#88c898" fill-opacity="1"><g transform="translate(134.570163, 307.09785)"><g><path d="M 78.015625 2.71875 C 58.796875 2.71875 43.363281 -3.101562 31.71875 -14.75 C 20.070312 -26.394531 14.25 -41.828125 14.25 -61.046875 L 14.25 -176.703125 C 14.25 -196.148438 20.070312 -211.582031 31.71875 -223 C 43.363281 -234.425781 58.796875 -240.140625 78.015625 -240.140625 C 97.453125 -240.140625 113.050781 -234.425781 124.8125 -223 C 136.570312 -211.582031 142.453125 -196.148438 142.453125 -176.703125 L 142.453125 -172.640625 C 142.453125 -171.503906 142.054688 -170.484375 141.265625 -169.578125 C 140.472656 -168.679688 139.507812 -168.234375 138.375 -168.234375 L 106.84375 -166.875 C 104.125 -166.875 102.765625 -168.226562 102.765625 -170.9375 L 102.765625 -179.421875 C 102.765625 -187.335938 100.503906 -193.78125 95.984375 -198.75 C 91.460938 -203.726562 85.472656 -206.21875 78.015625 -206.21875 C 70.773438 -206.21875 64.894531 -203.726562 60.375 -198.75 C 55.851562 -193.78125 53.59375 -187.335938 53.59375 -179.421875 L 53.59375 -58 C 53.59375 -50.082031 55.851562 -43.632812 60.375 -38.65625 C 64.894531 -33.6875 70.773438 -31.203125 78.015625 -31.203125 C 85.472656 -31.203125 91.460938 -33.6875 95.984375 -38.65625 C 100.503906 -43.632812 102.765625 -50.082031 102.765625 -58 L 102.765625 -66.484375 C 102.765625 -67.609375 103.160156 -68.566406 103.953125 -69.359375 C 104.742188 -70.148438 105.707031 -70.546875 106.84375 -70.546875 L 138.375 -69.1875 C 139.507812 -69.1875 140.472656 -68.789062 141.265625 -68 C 142.054688 -67.207031 142.453125 -66.25 142.453125 -65.125 L 142.453125 -61.046875 C 142.453125 -41.828125 136.570312 -26.394531 124.8125 -14.75 C 113.050781 -3.101562 97.453125 2.71875 78.015625 2.71875 Z M 78.015625 2.71875 "/></g></g></g></g></g></svg>